<?xml version="1.0" standalone="no"?>
<!DOCTYPE svg PUBLIC "-//W3C//DTD SVG 20010904//EN"
 "http://www.w3.org/TR/2001/REC-SVG-20010904/DTD/svg10.dtd">
<svg version="1.0" xmlns="http://www.w3.org/2000/svg"
 width="673.000000pt" height="622.000000pt" viewBox="0 0 673.000000 622.000000"
 preserveAspectRatio="xMidYMid meet">

<g transform="translate(0.000000,622.000000) scale(0.100000,-0.100000)"
fill="#000000" stroke="none">
<path d="M3587 6209 c-100 -24 -221 -128 -346 -296 -195 -261 -545 -867 -645
-1117 -120 -300 -99 -510 63 -625 l28 -20 110 192 c319 561 521 821 710 914
66 33 85 37 148 37 61 0 82 -4 139 -33 115 -56 253 -204 388 -416 101 -158
370 -649 430 -784 l23 -51 53 35 c58 39 106 106 123 170 18 64 5 236 -26 339
-84 281 -359 826 -608 1201 -228 343 -425 495 -590 454z"/>
<path d="M2415 5367 c-143 -48 -284 -189 -445 -446 -140 -224 -376 -686 -459
-900 -76 -196 -104 -322 -99 -445 5 -120 22 -162 94 -224 52 -47 115 -73 236
-99 73 -16 136 -18 508 -18 993 1 1293 94 1334 414 l7 54 -38 -6 c-21 -3 -172
-11 -335 -17 -723 -28 -1013 51 -1083 295 -31 106 -6 258 77 473 51 131 247
524 363 727 47 82 85 150 85 151 0 1 -23 11 -51 24 -64 27 -142 34 -194 17z"/>
<path d="M3482 4779 c-29 -11 -56 -27 -58 -34 -3 -7 33 -70 80 -141 215 -328
404 -675 460 -847 14 -42 30 -114 37 -160 19 -134 -17 -239 -105 -312 -154
-126 -447 -179 -1068 -192 l-298 -6 6 -41 c26 -187 148 -285 414 -332 263 -46
887 -33 1255 26 426 68 586 197 553 445 -12 91 -47 184 -130 348 -134 264
-466 792 -612 973 -200 248 -373 336 -534 273z"/>
<path d="M3163 4468 c-13 -6 -86 -107 -163 -226 -161 -247 -166 -263 -106
-330 l34 -37 276 -3 c304 -3 325 0 359 57 36 61 27 83 -122 311 -76 117 -149
219 -162 226 -29 16 -85 17 -116 2z"/>
<path d="M10 1370 l0 -610 545 0 545 0 0 105 0 105 -440 0 -440 0 0 400 0 400
440 0 440 0 0 105 0 105 -545 0 -545 0 0 -610z"/>
<path d="M1290 1370 l0 -610 515 0 515 0 0 105 0 105 -410 0 -410 0 0 505 0
505 -105 0 -105 0 0 -610z"/>
<path d="M2687 1960 c-157 -50 -233 -166 -225 -340 3 -73 9 -94 38 -148 37
-69 69 -101 139 -136 81 -41 134 -46 484 -46 296 0 336 -2 367 -18 108 -54
108 -213 0 -276 -34 -20 -52 -21 -522 -24 l-488 -3 0 -104 0 -105 485 0 c320
0 502 4 537 11 111 24 196 89 240 184 20 43 23 66 23 170 0 111 -2 124 -28
177 -33 67 -81 110 -157 140 -52 21 -73 23 -430 28 -340 4 -379 7 -403 23 -95
62 -87 209 13 259 32 16 77 18 493 18 l457 0 0 105 0 105 -482 -1 c-443 0
-488 -2 -541 -19z"/>
<path d="M3892 1963 c8 -10 153 -179 321 -376 l307 -358 0 -235 0 -234 110 0
110 0 0 233 0 234 315 367 c173 202 317 371 320 376 4 6 -45 10 -128 10 l-135
0 -237 -280 -237 -280 -91 108 c-51 59 -157 185 -237 280 l-145 172 -144 0
c-136 0 -143 -1 -129 -17z"/>
<path d="M5645 1966 c-95 -30 -163 -84 -201 -158 -95 -188 -15 -414 175 -490
53 -21 73 -22 426 -28 405 -6 410 -6 451 -67 28 -42 26 -138 -4 -181 -49 -69
-33 -67 -579 -70 l-493 -3 0 -105 0 -105 518 3 c510 3 518 3 573 26 158 64
237 232 199 424 -22 115 -70 176 -175 225 l-60 28 -375 5 c-413 6 -422 7 -455
70 -21 41 -19 128 4 166 39 64 40 64 550 64 l461 0 0 105 0 105 -487 -1 c-364
0 -498 -4 -528 -13z"/>
<path d="M380 1380 l0 -90 340 0 340 0 0 90 0 90 -340 0 -340 0 0 -90z"/>
<path d="M4753 484 c-89 -33 -121 -119 -67 -183 24 -29 127 -71 173 -71 10 0
41 -7 69 -15 88 -27 107 -93 39 -136 -49 -30 -162 -24 -240 15 -54 26 -60 27
-75 13 -21 -22 -6 -39 60 -67 63 -27 185 -37 246 -21 52 15 109 62 117 100 8
37 -16 95 -48 116 -14 8 -77 29 -142 44 -115 29 -149 46 -160 82 -25 78 142
119 252 62 39 -21 42 -21 57 -4 23 26 21 30 -31 53 -62 27 -192 34 -250 12z"/>
<path d="M5596 476 c-96 -40 -150 -107 -162 -200 -15 -105 67 -218 181 -252
90 -26 215 -16 291 22 l59 29 3 98 3 97 -121 0 -120 0 0 -25 c0 -25 1 -25 90
-25 l91 0 -3 -57 c-3 -53 -5 -58 -38 -77 -29 -17 -52 -21 -130 -21 -114 0
-159 19 -205 84 -26 37 -30 52 -30 105 0 64 20 106 70 148 63 54 198 63 285
21 41 -21 45 -21 62 -6 10 9 18 19 18 23 0 4 -24 18 -52 31 -39 16 -77 24
-143 26 -78 3 -98 0 -149 -21z"/>
<path d="M3450 256 l0 -236 145 0 c123 0 153 3 201 21 168 63 223 235 112 355
-67 72 -117 88 -300 92 l-158 4 0 -236z m299 174 c89 -25 145 -93 145 -176 0
-70 -35 -123 -105 -158 -48 -23 -64 -26 -166 -26 l-113 0 0 185 0 185 103 0
c56 0 117 -4 136 -10z"/>
<path d="M4110 255 l0 -235 215 0 c208 0 215 1 215 20 0 19 -8 20 -182 22
l-183 3 -3 83 -3 82 166 0 165 0 0 25 0 25 -165 0 -165 0 0 80 0 80 180 0 180
0 0 25 0 25 -210 0 -210 0 0 -235z"/>
<path d="M5220 255 l0 -235 35 0 35 0 0 235 0 235 -35 0 -35 0 0 -235z"/>
<path d="M6120 255 l0 -235 30 0 30 0 0 190 c0 105 3 190 6 190 3 0 89 -85
191 -190 156 -160 190 -190 214 -190 l29 0 0 235 0 235 -35 0 -35 0 0 -187 -1
-188 -182 188 c-164 169 -185 188 -214 187 l-33 0 0 -235z"/>
</g>
</svg>
